<svg width="24" height="24" viewBox="0 0 24 24" fill="none" xmlns="http://www.w3.org/2000/svg">
<path d="M12.025 2C13.375 2 14.4293 2.50833 15.188 3.525C15.9466 4.54167 16.5923 5.7 17.125 7C17.5583 8.05 17.975 9.21667 18.375 10.5C18.775 11.7833 19.2 13.075 19.65 14.375C20.0833 15.625 20.5583 16.8 21.075 17.9C21.5916 19 22.1916 19.9417 22.875 20.725C23.0083 20.875 23.0666 21.05 23.05 21.25C23.0333 21.45 22.9583 21.625 22.825 21.775C22.6916 21.925 22.5333 22.0083 22.35 22.025C22.1666 22.0417 21.9833 21.9833 21.8 21.85C20.4833 20.8167 19.4 19.6623 18.55 18.387C17.7 17.1117 16.8416 15.9993 15.975 15.05C15.4083 14.4167 14.8043 13.9167 14.163 13.55C13.5216 13.1833 12.809 13 12.025 13C11.241 13 10.5286 13.1833 9.88797 13.55C9.2473 13.9167 8.64297 14.4167 8.07497 15.05C7.2083 16 6.34997 17.1127 5.49997 18.388C4.64997 19.6633 3.56664 20.8173 2.24997 21.85C2.06664 21.9833 1.8833 22.0417 1.69997 22.025C1.51664 22.0083 1.3583 21.925 1.22497 21.775C1.09164 21.625 1.01664 21.45 0.99997 21.25C0.983303 21.05 1.04164 20.875 1.17497 20.725C1.8583 19.9417 2.4583 19 2.97497 17.9C3.49164 16.8 3.96664 15.625 4.39997 14.375C4.84997 13.075 5.27497 11.7833 5.67497 10.5C6.07497 9.21667 6.49164 8.05 6.92497 7C7.4583 5.7 8.1043 4.54167 8.86297 3.525C9.62164 2.50833 10.6756 2 12.025 2Z" fill="#333333"/>
</svg>
