<svg width="24" height="24" viewBox="0 0 24 24" fill="none" xmlns="http://www.w3.org/2000/svg">
<path d="M3.93549 10.0645H2.96775C2.68818 10.0645 2.45721 9.9729 2.27484 9.78967C2.09248 9.60645 2.00087 9.37548 2.00001 9.09677C1.99915 8.81806 2.09076 8.58709 2.27484 8.40387C2.45893 8.22064 2.6899 8.12903 2.96775 8.12903H4.90323C5.1828 8.12903 5.4142 8.22064 5.59742 8.40387C5.78065 8.58709 5.87183 8.81806 5.87097 9.09677V14.9032C5.87097 15.1828 5.77936 15.4142 5.59613 15.5974C5.41291 15.7806 5.18194 15.8718 4.90323 15.871C4.62452 15.8701 4.39355 15.7785 4.21033 15.5961C4.0271 15.4138 3.93549 15.1828 3.93549 14.9032V10.0645ZM8.45162 14.9032V12.6452C8.45162 12.2796 8.57549 11.9733 8.82323 11.7264C9.07097 11.4796 9.37721 11.3557 9.74194 11.3548H12.3226V10.0645H9.41936C9.13979 10.0645 8.90882 9.9729 8.72645 9.78967C8.54409 9.60645 8.45248 9.37548 8.45162 9.09677C8.45076 8.81806 8.54237 8.58709 8.72645 8.40387C8.91054 8.22064 9.14151 8.12903 9.41936 8.12903H12.9677C13.3333 8.12903 13.64 8.2529 13.8877 8.50064C14.1355 8.74838 14.2589 9.05462 14.2581 9.41935V11.3548C14.2581 11.7204 14.1342 12.0271 13.8865 12.2748C13.6387 12.5226 13.3325 12.646 12.9677 12.6452H10.3871V13.9355H13.2903C13.5699 13.9355 13.8013 14.0271 13.9845 14.2103C14.1677 14.3935 14.2589 14.6245 14.2581 14.9032C14.2572 15.1819 14.1656 15.4133 13.9832 15.5974C13.8009 15.7815 13.5699 15.8727 13.2903 15.871H9.41936C9.13979 15.871 8.90882 15.7793 8.72645 15.5961C8.54409 15.4129 8.45248 15.1819 8.45162 14.9032ZM20.7097 15.871H17.1613C16.8817 15.871 16.6508 15.7793 16.4684 15.5961C16.286 15.4129 16.1944 15.1819 16.1935 14.9032C16.1927 14.6245 16.2843 14.3935 16.4684 14.2103C16.6525 14.0271 16.8834 13.9355 17.1613 13.9355H20.0645V12.6452H18.129C17.957 12.6452 17.8064 12.5806 17.6774 12.4516C17.5484 12.3226 17.4839 12.172 17.4839 12C17.4839 11.828 17.5484 11.6774 17.6774 11.5484C17.8064 11.4193 17.957 11.3548 18.129 11.3548H20.0645V10.0645H17.1613C16.8817 10.0645 16.6508 9.9729 16.4684 9.78967C16.286 9.60645 16.1944 9.37548 16.1935 9.09677C16.1927 8.81806 16.2843 8.58709 16.4684 8.40387C16.6525 8.22064 16.8834 8.12903 17.1613 8.12903H20.7097C21.0753 8.12903 21.3819 8.2529 21.6297 8.50064C21.8774 8.74838 22.0009 9.05462 22 9.41935V14.5806C22 14.9462 21.8761 15.2529 21.6284 15.5006C21.3806 15.7484 21.0744 15.8718 20.7097 15.871Z" fill="#333333"/>
</svg>
