<svg width="24" height="24" viewBox="0 0 24 24" fill="none" xmlns="http://www.w3.org/2000/svg">
<path d="M10 15C9.71667 15 9.47933 14.904 9.288 14.712C9.09667 14.52 9.00067 14.2826 9 14V11.575C9 11.3083 9.05 11.054 9.15 10.812C9.25 10.57 9.39167 10.3576 9.575 10.175L18.175 1.57498C18.375 1.37498 18.6 1.22498 18.85 1.12498C19.1 1.02498 19.35 0.974976 19.6 0.974976C19.8667 0.974976 20.121 1.02498 20.363 1.12498C20.605 1.22498 20.8257 1.37498 21.025 1.57498L22.425 2.99998C22.6083 3.19998 22.75 3.42098 22.85 3.66298C22.95 3.90498 23 4.15064 23 4.39998C23 4.64931 22.9543 4.89531 22.863 5.13798C22.7717 5.38064 22.6257 5.60131 22.425 5.79998L13.825 14.4C13.6417 14.5833 13.4293 14.7293 13.188 14.838C12.9467 14.9466 12.6923 15.0006 12.425 15H10ZM19.6 5.79998L21.025 4.39998L19.625 2.99998L18.2 4.39998L19.6 5.79998ZM5 21C4.45 21 3.97933 20.8043 3.588 20.413C3.19667 20.0216 3.00067 19.5506 3 19V4.99998C3 4.44998 3.196 3.97931 3.588 3.58798C3.98 3.19664 4.45067 3.00064 5 2.99998H11.5C11.7333 2.99998 11.925 3.05831 12.075 3.17498C12.225 3.29164 12.3417 3.44164 12.425 3.62498C12.5083 3.80831 12.5373 3.99164 12.512 4.17498C12.4867 4.35831 12.391 4.53331 12.225 4.69998L7.575 9.34998C7.39167 9.53331 7.25 9.74598 7.15 9.98798C7.05 10.23 7 10.484 7 10.75V15C7 15.55 7.196 16.0206 7.588 16.412C7.98 16.8033 8.45067 16.9993 9 17H13.225C13.4917 17 13.746 16.95 13.988 16.85C14.23 16.75 14.4423 16.6083 14.625 16.425L19.3 11.75C19.4667 11.5833 19.6417 11.4873 19.825 11.462C20.0083 11.4366 20.1917 11.466 20.375 11.55C20.5583 11.634 20.7083 11.7506 20.825 11.9C20.9417 12.0493 21 12.241 21 12.475V19C21 19.55 20.8043 20.021 20.413 20.413C20.0217 20.805 19.5507 21.0006 19 21H5Z" fill="#333333"/>
</svg>
