<svg width="24" height="24" viewBox="0 0 24 24" fill="none" xmlns="http://www.w3.org/2000/svg">
<path d="M18 20L16.6 18.6L18.175 17H14V15H18.175L16.6 13.4L18 12L22 16L18 20ZM10.4 11L17 7.15V5H16.75L10.4 8.675L4.225 5H4V7.2L10.4 11ZM3.875 17C3.35833 17 2.91667 16.8167 2.55 16.45C2.18333 16.0833 2 15.6417 2 15.125V4.875C2 4.35833 2.18333 3.91667 2.55 3.55C2.91667 3.18333 3.35833 3 3.875 3H17.125C17.6417 3 18.0833 3.18333 18.45 3.55C18.8167 3.91667 19 4.35833 19 4.875V10.1C18.8333 10.0667 18.6667 10.0417 18.5 10.025C18.3333 10.0083 18.1667 10 18 10C16.3667 10 14.9583 10.5877 13.775 11.763C12.5917 12.9383 12 14.3507 12 16C12 16.1667 12.0083 16.3333 12.025 16.5C12.0417 16.6667 12.0667 16.8333 12.1 17H3.875Z" fill="#333333"/>
</svg>
