<svg width="24" height="24" viewBox="0 0 24 24" fill="none" xmlns="http://www.w3.org/2000/svg">
<path d="M9 12H15C15.2833 12 15.521 11.904 15.713 11.712C15.905 11.52 16.0007 11.2827 16 11C15.9993 10.7173 15.9033 10.48 15.712 10.288C15.5207 10.096 15.2833 10 15 10H9C8.71667 10 8.47933 10.096 8.288 10.288C8.09667 10.48 8.00067 10.7173 8 11C7.99933 11.2827 8.09533 11.5203 8.288 11.713C8.48067 11.9057 8.718 12.0013 9 12ZM9 8H15C15.2833 8 15.521 7.904 15.713 7.712C15.905 7.52 16.0007 7.28267 16 7C15.9993 6.71733 15.9033 6.48 15.712 6.288C15.5207 6.096 15.2833 6 15 6H9C8.71667 6 8.47933 6.096 8.288 6.288C8.09667 6.48 8.00067 6.71733 8 7C7.99933 7.28267 8.09533 7.52033 8.288 7.713C8.48067 7.90567 8.718 8.00133 9 8ZM19.95 20.475L15.9 15.2C15.6167 14.8167 15.2667 14.521 14.85 14.313C14.4333 14.105 13.9833 14.0007 13.5 14H4V4C4 3.45 4.196 2.97933 4.588 2.588C4.98 2.19667 5.45067 2.00067 6 2H18C18.55 2 19.021 2.196 19.413 2.588C19.805 2.98 20.0007 3.45067 20 4V20C20 20.0833 19.996 20.1627 19.988 20.238C19.98 20.3133 19.9673 20.3923 19.95 20.475ZM6 22C5.45 22 4.97933 21.8043 4.588 21.413C4.19667 21.0217 4.00067 20.5507 4 20V16H13.5C13.6667 16 13.821 16.0377 13.963 16.113C14.105 16.1883 14.2257 16.2923 14.325 16.425L18.525 21.925C18.4417 21.9583 18.3543 21.9793 18.263 21.988C18.1717 21.9967 18.084 22.0007 18 22H6Z" fill="#333333"/>
</svg>
