<svg width="24" height="24" viewBox="0 0 24 24" fill="none" xmlns="http://www.w3.org/2000/svg">
<path d="M3 17H21C21.2833 17 21.521 17.096 21.713 17.288C21.905 17.48 22.0007 17.7173 22 18C21.9993 18.2827 21.9033 18.5203 21.712 18.713C21.5207 18.9057 21.2833 19.0013 21 19H3C2.71667 19 2.47934 18.904 2.288 18.712C2.09667 18.52 2.00067 18.2827 2 18C1.99934 17.7173 2.09534 17.48 2.288 17.288C2.48067 17.096 2.718 17 3 17ZM4 11.45L3.525 12.3C3.425 12.4833 3.275 12.6 3.075 12.65C2.875 12.7 2.68334 12.675 2.5 12.575C2.31667 12.475 2.2 12.325 2.15 12.125C2.1 11.925 2.125 11.7333 2.225 11.55L2.7 10.7H1.75C1.53334 10.7 1.35434 10.6293 1.213 10.488C1.07167 10.3467 1.00067 10.1673 1 9.94999C0.999338 9.73266 1.07034 9.55366 1.213 9.41299C1.35567 9.27233 1.53467 9.20133 1.75 9.19999H2.7L2.225 8.39999C2.125 8.21666 2.1 8.02499 2.15 7.82499C2.2 7.62499 2.31667 7.47499 2.5 7.37499C2.68334 7.27499 2.875 7.24999 3.075 7.29999C3.275 7.34999 3.425 7.46666 3.525 7.64999L4 8.44999L4.475 7.64999C4.575 7.46666 4.725 7.34999 4.925 7.29999C5.125 7.24999 5.31667 7.27499 5.5 7.37499C5.68334 7.47499 5.8 7.62499 5.85 7.82499C5.9 8.02499 5.875 8.21666 5.775 8.39999L5.3 9.19999H6.25C6.46667 9.19999 6.646 9.27099 6.788 9.41299C6.93 9.55499 7.00067 9.73399 7 9.94999C6.99934 10.166 6.92834 10.3453 6.787 10.488C6.64567 10.6307 6.46667 10.7013 6.25 10.7H5.3L5.775 11.55C5.875 11.7333 5.9 11.925 5.85 12.125C5.8 12.325 5.68334 12.475 5.5 12.575C5.31667 12.675 5.125 12.7 4.925 12.65C4.725 12.6 4.575 12.4833 4.475 12.3L4 11.45ZM12 11.45L11.525 12.3C11.425 12.4833 11.275 12.6 11.075 12.65C10.875 12.7 10.6833 12.675 10.5 12.575C10.3167 12.475 10.2 12.325 10.15 12.125C10.1 11.925 10.125 11.7333 10.225 11.55L10.7 10.7H9.75C9.53334 10.7 9.35434 10.6293 9.21301 10.488C9.07167 10.3467 9.00067 10.1673 9 9.94999C8.99934 9.73266 9.07034 9.55366 9.21301 9.41299C9.35567 9.27233 9.53467 9.20133 9.75 9.19999H10.7L10.225 8.39999C10.125 8.21666 10.1 8.02499 10.15 7.82499C10.2 7.62499 10.3167 7.47499 10.5 7.37499C10.6833 7.27499 10.875 7.24999 11.075 7.29999C11.275 7.34999 11.425 7.46666 11.525 7.64999L12 8.44999L12.475 7.64999C12.575 7.46666 12.725 7.34999 12.925 7.29999C13.125 7.24999 13.3167 7.27499 13.5 7.37499C13.6833 7.47499 13.8 7.62499 13.85 7.82499C13.9 8.02499 13.875 8.21666 13.775 8.39999L13.3 9.19999H14.25C14.4667 9.19999 14.6457 9.27099 14.787 9.41299C14.9283 9.55499 14.9993 9.73399 15 9.94999C15.0007 10.166 14.9297 10.3453 14.787 10.488C14.6443 10.6307 14.4653 10.7013 14.25 10.7H13.3L13.775 11.55C13.875 11.7333 13.9 11.925 13.85 12.125C13.8 12.325 13.6833 12.475 13.5 12.575C13.3167 12.675 13.125 12.7 12.925 12.65C12.725 12.6 12.575 12.4833 12.475 12.3L12 11.45ZM20 11.45L19.525 12.3C19.425 12.4833 19.275 12.6 19.075 12.65C18.875 12.7 18.6833 12.675 18.5 12.575C18.3167 12.475 18.2 12.325 18.15 12.125C18.1 11.925 18.125 11.7333 18.225 11.55L18.7 10.7H17.75C17.5333 10.7 17.3543 10.6293 17.213 10.488C17.0717 10.3467 17.0007 10.1673 17 9.94999C16.9993 9.73266 17.0703 9.55366 17.213 9.41299C17.3557 9.27233 17.5347 9.20133 17.75 9.19999H18.7L18.225 8.39999C18.125 8.21666 18.1 8.02499 18.15 7.82499C18.2 7.62499 18.3167 7.47499 18.5 7.37499C18.6833 7.27499 18.875 7.24999 19.075 7.29999C19.275 7.34999 19.425 7.46666 19.525 7.64999L20 8.44999L20.475 7.64999C20.575 7.46666 20.725 7.34999 20.925 7.29999C21.125 7.24999 21.3167 7.27499 21.5 7.37499C21.6833 7.47499 21.8 7.62499 21.85 7.82499C21.9 8.02499 21.875 8.21666 21.775 8.39999L21.3 9.19999H22.25C22.4667 9.19999 22.646 9.27099 22.788 9.41299C22.93 9.55499 23.0007 9.73399 23 9.94999C22.9993 10.166 22.9283 10.3453 22.787 10.488C22.6457 10.6307 22.4667 10.7013 22.25 10.7H21.3L21.775 11.55C21.875 11.7333 21.9 11.925 21.85 12.125C21.8 12.325 21.6833 12.475 21.5 12.575C21.3167 12.675 21.125 12.7 20.925 12.65C20.725 12.6 20.575 12.4833 20.475 12.3L20 11.45Z" fill="#333333"/>
</svg>
