<svg width="24" height="24" viewBox="0 0 24 24" fill="none" xmlns="http://www.w3.org/2000/svg">
<path d="M6.80003 13L9.70003 15.9C9.88336 16.0833 9.97503 16.3167 9.97503 16.6C9.97503 16.8833 9.88336 17.1167 9.70003 17.3C9.51669 17.4833 9.28336 17.575 9.00003 17.575C8.71669 17.575 8.48336 17.4833 8.30003 17.3L3.70003 12.7C3.60003 12.6 3.52903 12.4917 3.48703 12.375C3.44503 12.2583 3.42469 12.1333 3.42603 12C3.42736 11.8667 3.44836 11.7417 3.48903 11.625C3.52969 11.5083 3.60036 11.4 3.70103 11.3L8.30103 6.69999C8.48436 6.51665 8.71769 6.42499 9.00103 6.42499C9.28436 6.42499 9.51769 6.51665 9.70103 6.69999C9.88436 6.88332 9.97603 7.11665 9.97603 7.39999C9.97603 7.68332 9.88436 7.91665 9.70103 8.09999L6.80003 11H19V7.99999C19 7.71665 19.096 7.47932 19.288 7.28799C19.48 7.09665 19.7174 7.00065 20 6.99999C20.2827 6.99932 20.5204 7.09532 20.713 7.28799C20.9057 7.48065 21.0014 7.71799 21 7.99999V11C21 11.55 20.8044 12.021 20.413 12.413C20.0217 12.805 19.5507 13.0007 19 13H6.80003Z" fill="#333333"/>
</svg>
